<svg xmlns="http://www.w3.org/2000/svg" viewBox="0 0 84.16 26.25"><defs><style>.cls-1,.cls-6{fill:none;}.cls-1,.cls-3,.cls-4,.cls-7,.cls-8,.cls-9{stroke:#fff;}.cls-1,.cls-4,.cls-6,.cls-7,.cls-8,.cls-9{stroke-miterlimit:10;}.cls-1{stroke-width:0.75px;}.cls-2{font-size:3.15px;}.cls-10,.cls-2,.cls-3,.cls-4,.cls-8{fill:#fff;}.cls-2,.cls-3,.cls-4,.cls-7,.cls-8,.cls-9{font-family:MyriadPro-Regular, Myriad Pro;}.cls-3{font-size:22.38px;}.cls-3,.cls-4,.cls-6{stroke-width:0.5px;}.cls-4{font-size:17.56px;}.cls-5{letter-spacing:0.01em;}.cls-6{stroke:#fdfdfd;}.cls-7,.cls-8,.cls-9{font-size:6.15px;stroke-width:0.25px;}.cls-7{fill:#fffffe;}.cls-9{fill:#fdfdfd;}</style></defs><g id="Layer_2" data-name="Layer 2"><g id="Layer_1-2" data-name="Layer 1"><polygon class="cls-1" points="40.6 7.53 33.92 10.96 33.97 17.4 41.2 20.49 47.45 17.5 47.34 10.54 40.6 7.53"/><path class="cls-1" d="M40.61,7.56l.4,2.88-6.85.63L37,15.85l4.14,4.46,4.2-4.5,1.74-5.14-5.72-.33,3.91,5.42-8.26,0L41,10.33"/><line class="cls-1" x1="47.35" y1="17.45" x2="45.39" y2="15.83"/><path class="cls-1" d="M34,17.33,37,15.82"/><text class="cls-2" transform="translate(39.47 14.91)">20</text><text class="cls-3" transform="translate(14.9 18.98) scale(1.52 1)">S</text><text class="cls-4" transform="translate(48.51 18.98)">cie<tspan class="cls-5" x="20.78" y="0">t</tspan><tspan x="26.75" y="0">y</tspan></text><ellipse class="cls-6" cx="1.79" cy="8.87" rx="0.74" ry="0.4" transform="translate(-5.75 3.86) rotate(-45)"/><path class="cls-6" d="M14.09,20.4a.25.25,0,0,1-.15.12,18.09,18.09,0,0,1-1.84-.82c-.44-.22-.69-.38-1.27-.67s-1-.49-1.33-.63a36.7,36.7,0,0,1-2.94-2.31c-.71-.62-1.2-1.1-2.7-2.58L.59,10.25.29,9.5,1.42,8.07a2.83,2.83,0,0,1,1-.38,2.61,2.61,0,0,1,.76-.05,4.56,4.56,0,0,1,1,.47A5.23,5.23,0,0,1,5.24,9c.4.43-.32-.38,2.91,2.69.13.13.84.8,1.73,1.69A14.88,14.88,0,0,1,11.2,14.9c.27.37.48.68.61.9.27.49.55,1,.82,1.54s.44.89.64,1.32a5.79,5.79,0,0,0,.53,1C14,20,14.19,20.23,14.09,20.4Z"/><path class="cls-6" d="M.64,10.25,1.74,10,2.86,9l.51-1.2"/><path class="cls-6" d="M1.72,10c.3.27.74.68,1.3,1.17l1.54,1.36c1.15,1,1.48,1.39,2.86,2.7.58.55,1.44,1.35,2.52,2.3a.53.53,0,0,1,0,.71.51.51,0,0,1-.51.07"/><path class="cls-6" d="M9.94,17.56a.83.83,0,0,0,1,.09.83.83,0,0,0-.21-1.21c-.29-.32-.74-.79-1.31-1.33l-1-.95-1.46-1.3C5.29,11.41,5.29,11.46,4.75,11A24.81,24.81,0,0,1,2.87,9"/><path class="cls-6" d="M10.74,16.44a.64.64,0,0,0,.91-.06.63.63,0,0,0,0-.78"/><path class="cls-6" d="M12.09,19.66a1.46,1.46,0,0,0,.81-.52,1.43,1.43,0,0,0,.27-.64"/><text class="cls-7" transform="translate(34.16 7.1)">D</text><text class="cls-8" transform="translate(43.24 7.07)">D</text><text class="cls-9" transform="translate(39.17 5.3)">n</text><path class="cls-10" d="M16.21,21.51c10,3.17,20.36,1.56,30.59,2.06,5.28.26,10.52,1,15.76,1.66,4.31.54,8.77,1.22,13.13,1,3.56-.2,7.09-1.4,8.43-5,.28-.76-.93-1.08-1.21-.33C81.67,24.22,78,24.92,74.78,25a88.81,88.81,0,0,1-12.7-1.06c-4.92-.61-9.84-1.3-14.8-1.57s-9.65,0-14.47,0a53.18,53.18,0,0,1-16.27-2c-.77-.24-1.1,1-.33,1.21Z"/></g></g></svg>